<svg width="21" height="20" viewBox="0 0 21 20" fill="none" xmlns="http://www.w3.org/2000/svg">
<path d="M19.2494 14.4765V17.1862C19.2505 17.4377 19.1988 17.6867 19.0979 17.9172C18.9969 18.1477 18.8488 18.3546 18.663 18.5247C18.4773 18.6947 18.258 18.8242 18.0193 18.9048C17.7805 18.9854 17.5275 19.0153 17.2765 18.9927C14.4915 18.6907 11.8164 17.7409 9.46601 16.2197C7.27929 14.8329 5.42534 12.9827 4.0358 10.8003C2.50627 8.44389 1.55442 5.76107 1.25735 2.96915C1.23473 2.71938 1.26447 2.46764 1.34468 2.22996C1.42489 1.99229 1.55381 1.77389 1.72323 1.58866C1.89265 1.40343 2.09885 1.25544 2.32872 1.15411C2.55858 1.05278 2.80707 1.00032 3.05837 1.00009H5.77347C6.21269 0.995773 6.6385 1.151 6.97152 1.43683C7.30455 1.72267 7.52207 2.11961 7.58354 2.55366C7.69814 3.42084 7.91067 4.27229 8.21707 5.09177C8.33883 5.41507 8.36519 5.76642 8.293 6.1042C8.22082 6.44198 8.05313 6.75203 7.8098 6.99761L6.66041 8.14473C7.94877 10.406 9.82482 12.2784 12.0906 13.5642L13.24 12.4171C13.4861 12.1742 13.7967 12.0069 14.1352 11.9348C14.4736 11.8628 14.8257 11.8891 15.1496 12.0106C15.9707 12.3164 16.8239 12.5285 17.6928 12.6429C18.1324 12.7048 18.5339 12.9258 18.8209 13.2639C19.108 13.6019 19.2605 14.0335 19.2494 14.4765Z" stroke="white" stroke-width="2" stroke-linecap="round" stroke-linejoin="round"/>
</svg>
